<svg xmlns="http://www.w3.org/2000/svg" viewBox="0 0 535.61 536.65"><title>Asset 1</title><g id="Layer_2" data-name="Layer 2"><g id="LOGO"><g id="Avatar_NEW" data-name="Avatar NEW"><path d="M4.17,215.57H107.46c37.47,0,70-32.52,70-72.11,0-37.47-32.52-68.57-70-68.57h-26A267.8,267.8,0,0,0,4.17,215.57Z"/><path d="M268.7,307.42c-4.24-9.19,1.42-18.38,12-18.38h72.11a13,13,0,0,1,12,7.78l92.6,160.79a267.45,267.45,0,0,0,78.16-189.28C535.61,120.13,415.48,0,267.28,0a268.21,268.21,0,0,0-74.71,10.62c45.83,26.3,76.79,75.22,76.79,131.43,0,65-43.13,118.06-104.64,142.81l96.86,179.57c4.95,9.19,0,20.5-12,20.5H175.33c-6.37,0-9.9-3.53-11.32-6.36L70,291.22H0C11.63,428.68,126.81,536.65,267.28,536.65a267.17,267.17,0,0,0,114.78-25.76Z"/></g></g></g></svg>